<svg xmlns="http://www.w3.org/2000/svg" xmlns:xlink="http://www.w3.org/1999/xlink" width="500" zoomAndPan="magnify" viewBox="0 0 375 374.999991" height="500" preserveAspectRatio="xMidYMid meet" version="1.0"><defs><clipPath id="7bc004ad6b"><path d="M 8.246094 5 L 337.496094 5 L 337.496094 367 L 8.246094 367 Z M 8.246094 5 " clip-rule="nonzero"/></clipPath></defs><g clip-path="url(#7bc004ad6b)"><path fill="#ffffff" d="M 109.914062 327.25 L 109.914062 293.292969 L 141.070312 276.0625 L 171.871094 293.144531 L 171.871094 361.636719 Z M 77.464844 307.144531 L 77.464844 238.730469 L 139.421875 204.410156 L 139.421875 236.429688 L 107.257812 254.234375 L 107.042969 254.378906 L 106.898438 254.523438 L 106.757812 254.738281 L 106.609375 254.882812 L 106.46875 255.167969 L 106.46875 291.207031 Z M 11.988281 272.832031 L 11.988281 204.410156 L 73.875 238.730469 L 73.875 307.144531 Z M 74.878906 208.144531 L 75.167969 208.289062 L 75.308594 208.289062 C 75.449219 208.328125 75.59375 208.351562 75.738281 208.359375 C 75.886719 208.351562 76.03125 208.328125 76.171875 208.289062 L 76.3125 208.289062 L 76.601562 208.144531 L 113.21875 187.828125 L 137.554688 201.324219 L 75.738281 235.570312 L 13.925781 201.324219 L 38.265625 187.828125 Z M 11.988281 169.234375 L 11.988281 100.742188 L 73.875 135.058594 L 73.875 163.992188 L 38.195312 183.734375 Z M 106.324219 80.351562 L 106.324219 114.886719 L 75.667969 131.972656 L 13.855469 97.726562 L 75.667969 63.480469 Z M 109.914062 46.25 L 171.871094 80.570312 L 171.871094 149.058594 L 143.011719 133.121094 L 143.011719 97.082031 L 142.867188 96.792969 L 142.722656 96.648438 L 142.578125 96.433594 L 142.4375 96.289062 L 142.222656 96.148438 L 110.058594 78.34375 L 110.058594 46.320312 Z M 235.480469 43.238281 L 173.667969 77.480469 L 111.851562 43.238281 L 173.667969 9.0625 Z M 203.820312 96.148438 L 203.605469 96.289062 L 203.460938 96.433594 L 203.316406 96.648438 L 203.101562 96.792969 L 202.957031 97.082031 L 202.957031 133.910156 L 175.53125 149.132812 L 175.53125 80.640625 L 237.347656 46.320312 L 237.347656 77.554688 Z M 270.226562 63.480469 L 332.039062 97.726562 L 270.226562 131.972656 L 241.007812 115.816406 L 241.007812 79.636719 Z M 333.980469 169.234375 L 303.035156 186.390625 L 272.023438 169.234375 L 272.023438 135.058594 L 333.90625 100.742188 L 333.90625 169.234375 Z M 332.039062 206.566406 L 270.226562 240.808594 L 208.414062 206.566406 L 237.488281 190.480469 L 269.367188 208.144531 L 269.652344 208.289062 L 269.796875 208.289062 C 269.9375 208.328125 270.082031 208.351562 270.226562 208.359375 C 270.375 208.351562 270.515625 208.328125 270.65625 208.289062 L 270.804688 208.289062 L 271.089844 208.144531 L 302.964844 190.480469 Z M 272.023438 312.386719 L 272.023438 243.96875 L 333.90625 209.652344 L 333.90625 278.144531 Z M 240.9375 255.8125 L 240.9375 255.167969 L 240.792969 254.882812 L 240.648438 254.738281 L 240.503906 254.523438 L 240.359375 254.378906 L 240.144531 254.234375 L 206.546875 235.640625 L 206.546875 209.652344 L 268.433594 243.96875 L 268.433594 312.460938 L 241.007812 297.242188 L 241.007812 255.8125 Z M 137.410156 273.976562 L 109.914062 289.199219 L 109.914062 258.832031 Z M 237.417969 258.757812 L 237.417969 295.15625 L 206.476562 278.070312 L 206.476562 275.917969 Z M 235.480469 255.742188 L 206.476562 271.824219 L 206.476562 239.734375 Z M 173.667969 221.5 L 202.886719 237.652344 L 202.886719 273.761719 L 173.667969 289.988281 L 143.011719 273.042969 L 143.011719 238.511719 Z M 272.023438 173.324219 L 299.304688 188.402344 L 272.023438 203.476562 Z M 268.433594 203.550781 L 241.152344 188.472656 L 268.433594 173.398438 L 268.433594 203.621094 Z M 238.28125 118.402344 L 268.433594 135.058594 L 268.433594 169.234375 L 237.488281 186.390625 L 206.546875 169.234375 L 206.546875 135.992188 Z M 234.546875 116.324219 L 206.402344 131.902344 L 206.402344 100.742188 Z M 237.347656 81.644531 L 237.347656 113.738281 L 208.34375 97.65625 Z M 139.421875 100.742188 L 139.421875 131.109375 L 111.996094 115.890625 Z M 137.480469 97.726562 L 109.914062 113.019531 L 109.914062 82.433594 Z M 77.464844 163.992188 L 77.464844 135.058594 L 108.261719 117.972656 L 139.421875 135.203125 L 139.421875 169.160156 L 113.21875 183.660156 Z M 73.875 203.550781 L 41.925781 185.816406 L 73.875 168.082031 Z M 77.464844 168.082031 L 109.480469 185.816406 L 77.464844 203.550781 Z M 143.011719 201.398438 L 143.011719 200.75 L 142.867188 200.464844 L 142.722656 200.320312 L 142.578125 200.105469 L 142.4375 199.960938 L 142.222656 199.816406 L 116.878906 185.816406 L 142.078125 171.890625 C 142.65625 171.570312 143.011719 170.964844 143.011719 170.308594 L 143.011719 137.285156 L 172.804688 153.796875 L 173.089844 153.941406 L 173.234375 153.941406 C 173.375 153.984375 173.519531 154.003906 173.667969 154.015625 C 173.8125 154.003906 173.957031 153.984375 174.097656 153.941406 L 174.242188 153.941406 L 174.527344 153.796875 L 202.886719 138.074219 L 202.886719 170.378906 C 202.882812 171.039062 203.242188 171.644531 203.820312 171.960938 L 233.757812 188.542969 L 203.820312 204.988281 L 203.605469 205.128906 L 203.460938 205.273438 L 203.316406 205.488281 L 203.171875 205.632812 L 203.027344 205.917969 L 203.027344 233.558594 L 174.671875 217.835938 C 174.136719 217.542969 173.484375 217.542969 172.949219 217.835938 L 143.15625 234.347656 L 143.15625 201.324219 Z M 139.421875 240.523438 L 139.421875 271.105469 L 111.851562 255.8125 Z M 237.347656 327.25 L 175.386719 361.566406 L 175.386719 293.144531 L 202.8125 277.925781 L 202.8125 279.148438 C 202.8125 279.804688 203.167969 280.410156 203.746094 280.726562 L 237.347656 299.320312 L 237.347656 327.320312 Z M 173.234375 366.375 C 173.375 366.417969 173.519531 366.441406 173.667969 366.449219 C 173.8125 366.441406 173.957031 366.417969 174.097656 366.375 L 174.242188 366.375 L 174.527344 366.230469 L 240.074219 329.90625 C 240.652344 329.589844 241.007812 328.984375 241.007812 328.324219 L 241.007812 301.332031 L 269.367188 317.054688 L 269.652344 317.195312 L 269.796875 317.195312 C 269.9375 317.238281 270.082031 317.265625 270.226562 317.269531 C 270.375 317.265625 270.515625 317.238281 270.65625 317.195312 L 270.804688 317.195312 L 271.089844 317.054688 L 336.5625 280.726562 C 337.140625 280.410156 337.5 279.804688 337.496094 279.148438 L 337.496094 205.917969 L 337.355469 205.632812 L 337.210938 205.488281 L 337.066406 205.273438 L 336.921875 205.128906 L 336.707031 204.988281 L 306.699219 188.472656 L 336.5625 171.890625 C 337.140625 171.570312 337.5 170.964844 337.496094 170.308594 L 337.496094 97.082031 L 337.355469 96.792969 L 337.210938 96.648438 L 337.066406 96.433594 L 336.921875 96.289062 L 336.707031 96.148438 L 271.089844 59.820312 C 270.554688 59.527344 269.902344 59.527344 269.367188 59.820312 L 241.007812 75.542969 L 241.007812 42.660156 L 240.863281 42.371094 L 240.71875 42.230469 L 240.578125 42.015625 L 240.433594 41.871094 L 240.21875 41.726562 L 174.527344 5.402344 C 173.992188 5.109375 173.339844 5.109375 172.804688 5.402344 L 107.257812 41.726562 L 107.042969 41.871094 L 106.898438 42.015625 L 106.757812 42.230469 L 106.609375 42.371094 L 106.46875 42.660156 L 106.46875 76.332031 L 76.671875 59.820312 C 76.136719 59.527344 75.488281 59.527344 74.953125 59.820312 L 9.402344 96.148438 L 9.1875 96.289062 L 9.042969 96.433594 L 8.902344 96.648438 L 8.757812 96.792969 L 8.613281 97.082031 L 8.613281 170.308594 C 8.613281 170.964844 8.96875 171.570312 9.546875 171.890625 L 34.457031 185.816406 L 9.261719 199.746094 L 9.042969 199.886719 L 8.902344 200.03125 L 8.757812 200.246094 L 8.613281 200.390625 L 8.46875 200.679688 L 8.46875 273.90625 C 8.46875 274.5625 8.824219 275.171875 9.402344 275.488281 L 74.953125 311.8125 L 75.238281 311.957031 L 75.308594 311.957031 C 75.449219 311.996094 75.59375 312.023438 75.738281 312.027344 C 75.886719 312.023438 76.03125 311.996094 76.171875 311.957031 L 76.3125 311.957031 L 76.601562 311.8125 L 106.398438 295.300781 L 106.398438 328.324219 C 106.394531 328.984375 106.753906 329.589844 107.328125 329.90625 L 172.875 366.230469 L 173.164062 366.375 L 173.308594 366.375 L 173.234375 366.375 " fill-opacity="1" fill-rule="nonzero"/></g></svg>