<svg xmlns="http://www.w3.org/2000/svg" xmlns:xlink="http://www.w3.org/1999/xlink" width="500" zoomAndPan="magnify" viewBox="0 0 375 374.999991" height="500" preserveAspectRatio="xMidYMid meet" version="1.0"><defs><clipPath id="30874aaeb7"><path d="M 25.832031 10 L 351.332031 10 L 351.332031 367.433594 L 25.832031 367.433594 Z M 25.832031 10 " clip-rule="nonzero"/></clipPath></defs><g clip-path="url(#30874aaeb7)"><path fill="#21007d" d="M 126.1875 328.394531 L 126.1875 294.832031 L 157.011719 277.800781 L 187.480469 294.6875 L 187.480469 362.386719 Z M 94.085938 308.523438 L 94.085938 240.898438 L 155.378906 206.980469 L 155.378906 238.628906 L 123.558594 256.226562 L 123.347656 256.367188 L 123.207031 256.511719 L 123.0625 256.722656 L 122.917969 256.867188 L 122.777344 257.148438 L 122.777344 292.773438 Z M 29.3125 274.605469 L 29.3125 206.980469 L 90.535156 240.898438 L 90.535156 308.523438 Z M 91.527344 210.667969 L 91.8125 210.808594 L 91.953125 210.808594 C 92.09375 210.851562 92.234375 210.875 92.378906 210.882812 C 92.523438 210.875 92.667969 210.851562 92.804688 210.808594 L 92.949219 210.808594 L 93.234375 210.667969 L 129.457031 190.585938 L 153.53125 203.925781 L 92.378906 237.777344 L 31.230469 203.925781 L 55.304688 190.585938 Z M 29.3125 172.207031 L 29.3125 104.507812 L 90.535156 138.429688 L 90.535156 167.027344 L 55.238281 186.542969 Z M 122.636719 84.355469 L 122.636719 118.488281 L 92.308594 135.375 L 31.15625 101.527344 L 92.308594 67.679688 Z M 126.1875 50.648438 L 187.480469 84.570312 L 187.480469 152.265625 L 158.929688 136.511719 L 158.929688 100.890625 L 158.785156 100.605469 L 158.644531 100.464844 L 158.503906 100.25 L 158.363281 100.109375 L 158.148438 99.96875 L 126.328125 82.367188 L 126.328125 50.71875 Z M 250.40625 47.667969 L 189.257812 81.515625 L 128.105469 47.667969 L 189.257812 13.890625 Z M 219.085938 99.96875 L 218.871094 100.109375 L 218.730469 100.25 L 218.589844 100.464844 L 218.375 100.605469 L 218.234375 100.890625 L 218.234375 137.292969 L 191.101562 152.339844 L 191.101562 84.636719 L 252.253906 50.71875 L 252.253906 81.589844 Z M 284.785156 67.679688 L 345.933594 101.527344 L 284.785156 135.375 L 255.878906 119.410156 L 255.878906 83.644531 Z M 347.851562 172.207031 L 317.242188 189.167969 L 286.558594 172.207031 L 286.558594 138.429688 L 347.78125 104.507812 L 347.78125 172.207031 Z M 345.933594 209.109375 L 284.785156 242.957031 L 223.632812 209.109375 L 252.394531 193.210938 L 283.929688 210.667969 L 284.214844 210.808594 L 284.355469 210.808594 C 284.496094 210.851562 284.640625 210.875 284.785156 210.882812 C 284.925781 210.875 285.070312 210.851562 285.207031 210.808594 L 285.351562 210.808594 L 285.636719 210.667969 L 317.167969 193.210938 Z M 286.558594 313.707031 L 286.558594 246.078125 L 347.78125 212.160156 L 347.78125 279.855469 Z M 255.804688 257.785156 L 255.804688 257.148438 L 255.664062 256.867188 L 255.523438 256.722656 L 255.378906 256.511719 L 255.238281 256.367188 L 255.023438 256.226562 L 221.785156 237.847656 L 221.785156 212.160156 L 283.007812 246.078125 L 283.007812 313.777344 L 255.878906 298.734375 L 255.878906 257.785156 Z M 153.390625 275.742188 L 126.1875 290.785156 L 126.1875 260.769531 Z M 252.324219 260.699219 L 252.324219 296.675781 L 221.714844 279.785156 L 221.714844 277.65625 Z M 250.40625 257.71875 L 221.714844 273.613281 L 221.714844 241.890625 Z M 189.257812 223.867188 L 218.164062 239.835938 L 218.164062 275.527344 L 189.257812 291.566406 L 158.929688 274.816406 L 158.929688 240.6875 Z M 286.558594 176.253906 L 313.546875 191.152344 L 286.558594 206.054688 Z M 283.007812 206.128906 L 256.019531 191.226562 L 283.007812 176.324219 L 283.007812 206.199219 Z M 253.179688 121.964844 L 283.007812 138.429688 L 283.007812 172.207031 L 252.394531 189.167969 L 221.785156 172.207031 L 221.785156 139.351562 Z M 249.484375 119.910156 L 221.640625 135.308594 L 221.640625 104.507812 Z M 252.253906 85.632812 L 252.253906 117.351562 L 223.5625 101.457031 Z M 155.378906 104.507812 L 155.378906 134.527344 L 128.246094 119.480469 Z M 153.460938 101.527344 L 126.1875 116.644531 L 126.1875 86.414062 Z M 94.085938 167.027344 L 94.085938 138.429688 L 124.554688 121.539062 L 155.378906 138.570312 L 155.378906 172.136719 L 129.457031 186.46875 Z M 90.535156 206.128906 L 58.929688 188.597656 L 90.535156 171.070312 Z M 94.085938 171.070312 L 125.761719 188.597656 L 94.085938 206.128906 Z M 158.929688 204 L 158.929688 203.359375 L 158.785156 203.078125 L 158.644531 202.933594 L 158.503906 202.722656 L 158.363281 202.582031 L 158.148438 202.4375 L 133.078125 188.597656 L 158.007812 174.832031 C 158.578125 174.519531 158.929688 173.921875 158.929688 173.273438 L 158.929688 140.628906 L 188.40625 156.949219 L 188.6875 157.09375 L 188.828125 157.09375 C 188.96875 157.132812 189.113281 157.15625 189.257812 157.164062 C 189.402344 157.15625 189.542969 157.132812 189.679688 157.09375 L 189.824219 157.09375 L 190.109375 156.949219 L 218.164062 141.410156 L 218.164062 173.339844 C 218.160156 173.992188 218.515625 174.589844 219.085938 174.90625 L 248.703125 191.296875 L 219.085938 207.546875 L 218.871094 207.6875 L 218.730469 207.832031 L 218.589844 208.042969 L 218.445312 208.183594 L 218.304688 208.46875 L 218.304688 235.789062 L 190.25 220.25 C 189.71875 219.957031 189.078125 219.957031 188.546875 220.25 L 159.070312 236.570312 L 159.070312 203.925781 Z M 155.378906 242.675781 L 155.378906 272.902344 L 128.105469 257.785156 Z M 252.253906 328.394531 L 190.960938 362.316406 L 190.960938 294.6875 L 218.089844 279.644531 L 218.089844 280.851562 C 218.089844 281.5 218.441406 282.101562 219.015625 282.414062 L 252.253906 300.792969 L 252.253906 328.464844 Z M 188.828125 367.070312 C 188.96875 367.109375 189.113281 367.136719 189.257812 367.140625 C 189.402344 367.136719 189.542969 367.109375 189.679688 367.070312 L 189.824219 367.070312 L 190.109375 366.925781 L 254.953125 331.023438 C 255.523438 330.710938 255.878906 330.109375 255.878906 329.457031 L 255.878906 302.777344 L 283.929688 318.316406 L 284.214844 318.460938 L 284.355469 318.460938 C 284.496094 318.5 284.640625 318.527344 284.785156 318.53125 C 284.925781 318.527344 285.070312 318.5 285.207031 318.460938 L 285.351562 318.460938 L 285.636719 318.316406 L 350.40625 282.414062 C 350.980469 282.101562 351.335938 281.5 351.332031 280.851562 L 351.332031 208.46875 L 351.191406 208.183594 L 351.046875 208.042969 L 350.90625 207.832031 L 350.761719 207.6875 L 350.550781 207.546875 L 320.863281 191.226562 L 350.40625 174.832031 C 350.980469 174.519531 351.335938 173.921875 351.332031 173.273438 L 351.332031 100.890625 L 351.191406 100.605469 L 351.046875 100.464844 L 350.90625 100.25 L 350.761719 100.109375 L 350.550781 99.96875 L 285.636719 64.058594 C 285.105469 63.769531 284.460938 63.769531 283.929688 64.058594 L 255.878906 79.601562 L 255.878906 47.101562 L 255.734375 46.816406 L 255.589844 46.671875 L 255.449219 46.460938 L 255.308594 46.320312 L 255.09375 46.175781 L 190.109375 10.273438 C 189.578125 9.980469 188.933594 9.980469 188.40625 10.273438 L 123.558594 46.175781 L 123.347656 46.320312 L 123.207031 46.460938 L 123.0625 46.671875 L 122.917969 46.816406 L 122.777344 47.101562 L 122.777344 80.378906 L 93.304688 64.058594 C 92.773438 63.769531 92.128906 63.769531 91.601562 64.058594 L 26.753906 99.96875 L 26.542969 100.109375 L 26.398438 100.25 L 26.257812 100.464844 L 26.117188 100.605469 L 25.972656 100.890625 L 25.972656 173.273438 C 25.972656 173.921875 26.324219 174.519531 26.894531 174.832031 L 51.539062 188.597656 L 26.613281 202.367188 L 26.398438 202.507812 L 26.257812 202.648438 L 26.117188 202.863281 L 25.972656 203.003906 L 25.832031 203.289062 L 25.832031 275.671875 C 25.828125 276.320312 26.183594 276.917969 26.753906 277.230469 L 91.601562 313.136719 L 91.882812 313.28125 L 91.953125 313.28125 C 92.09375 313.320312 92.234375 313.34375 92.378906 313.351562 C 92.523438 313.34375 92.667969 313.320312 92.804688 313.28125 L 92.949219 313.28125 L 93.234375 313.136719 L 122.707031 296.816406 L 122.707031 329.457031 C 122.707031 330.109375 123.0625 330.710938 123.628906 331.023438 L 188.472656 366.925781 L 188.761719 367.070312 L 188.902344 367.070312 L 188.828125 367.070312 " fill-opacity="1" fill-rule="nonzero"/></g></svg>